<svg width="1600" height="139" viewBox="0 0 1600 139" fill="none" xmlns="http://www.w3.org/2000/svg">
<rect width="1600" height="140" fill="#0B0D0D"/>
<path d="M75.704 64.512H75.608L73.976 67.776L69.624 75.68L65.368 67.808L63.672 64.288H63.576V79.168H59V56.832H64.152L69.624 67.296H69.688L75.096 56.832H80.28V79.168H75.704V64.512Z" fill="white"/>
<path d="M91.7788 79.552C90.5414 79.552 89.4321 79.3494 88.4508 78.944C87.4907 78.5387 86.6694 77.952 85.9867 77.184C85.3254 76.416 84.8134 75.488 84.4508 74.4C84.0881 73.312 83.9067 72.096 83.9067 70.752C83.9067 69.408 84.0881 68.192 84.4508 67.104C84.8134 66.016 85.3254 65.0987 85.9867 64.352C86.6694 63.584 87.4907 62.9974 88.4508 62.592C89.4321 62.1867 90.5414 61.984 91.7788 61.984C93.0161 61.984 94.1147 62.1867 95.0747 62.592C96.0561 62.9974 96.8774 63.584 97.5387 64.352C98.2214 65.0987 98.7441 66.016 99.1068 67.104C99.4694 68.192 99.6507 69.408 99.6507 70.752C99.6507 72.096 99.4694 73.312 99.1068 74.4C98.7441 75.488 98.2214 76.416 97.5387 77.184C96.8774 77.952 96.0561 78.5387 95.0747 78.944C94.1147 79.3494 93.0161 79.552 91.7788 79.552ZM91.7788 75.808C92.7174 75.808 93.4427 75.52 93.9548 74.944C94.4668 74.368 94.7228 73.5467 94.7228 72.48V69.056C94.7228 67.9894 94.4668 67.168 93.9548 66.592C93.4427 66.016 92.7174 65.728 91.7788 65.728C90.8401 65.728 90.1147 66.016 89.6028 66.592C89.0908 67.168 88.8348 67.9894 88.8348 69.056V72.48C88.8348 73.5467 89.0908 74.368 89.6028 74.944C90.1147 75.52 90.8401 75.808 91.7788 75.808Z" fill="white"/>
<path d="M108.726 79.168C107.083 79.168 105.835 78.752 104.982 77.92C104.15 77.088 103.734 75.872 103.734 74.272V66.048H101.366V62.368H102.55C103.19 62.368 103.627 62.2187 103.862 61.92C104.096 61.6 104.214 61.152 104.214 60.576V57.824H108.47V62.368H111.798V66.048H108.47V75.488H111.542V79.168H108.726Z" fill="white"/>
<path d="M121.779 79.552C120.541 79.552 119.432 79.3494 118.451 78.944C117.491 78.5387 116.669 77.952 115.987 77.184C115.325 76.416 114.813 75.488 114.451 74.4C114.088 73.312 113.907 72.096 113.907 70.752C113.907 69.408 114.088 68.192 114.451 67.104C114.813 66.016 115.325 65.0987 115.987 64.352C116.669 63.584 117.491 62.9974 118.451 62.592C119.432 62.1867 120.541 61.984 121.779 61.984C123.016 61.984 124.115 62.1867 125.075 62.592C126.056 62.9974 126.877 63.584 127.539 64.352C128.221 65.0987 128.744 66.016 129.107 67.104C129.469 68.192 129.651 69.408 129.651 70.752C129.651 72.096 129.469 73.312 129.107 74.4C128.744 75.488 128.221 76.416 127.539 77.184C126.877 77.952 126.056 78.5387 125.075 78.944C124.115 79.3494 123.016 79.552 121.779 79.552ZM121.779 75.808C122.717 75.808 123.443 75.52 123.955 74.944C124.467 74.368 124.723 73.5467 124.723 72.48V69.056C124.723 67.9894 124.467 67.168 123.955 66.592C123.443 66.016 122.717 65.728 121.779 65.728C120.84 65.728 120.115 66.016 119.603 66.592C119.091 67.168 118.835 67.9894 118.835 69.056V72.48C118.835 73.5467 119.091 74.368 119.603 74.944C120.115 75.52 120.84 75.808 121.779 75.808Z" fill="white"/>
<path d="M133.025 79.168V62.368H137.761V66.016H137.921C138.007 65.5467 138.156 65.0987 138.369 64.672C138.583 64.224 138.86 63.8294 139.201 63.488C139.564 63.1467 139.991 62.88 140.481 62.688C140.972 62.4747 141.548 62.368 142.209 62.368H143.041V66.784H141.857C140.471 66.784 139.436 66.9654 138.753 67.328C138.092 67.6907 137.761 68.3627 137.761 69.344V79.168H133.025Z" fill="white"/>
<path d="M151.659 79.552C150.037 79.552 148.672 79.296 147.563 78.784C146.453 78.2507 145.461 77.504 144.587 76.544L147.371 73.728C147.968 74.3894 148.629 74.912 149.355 75.296C150.08 75.68 150.901 75.872 151.819 75.872C152.757 75.872 153.408 75.7334 153.771 75.456C154.133 75.1574 154.315 74.7627 154.315 74.272C154.315 73.4827 153.749 73.0134 152.619 72.864L150.795 72.64C147.019 72.1707 145.131 70.4427 145.131 67.456C145.131 66.6454 145.28 65.9094 145.579 65.248C145.899 64.5654 146.336 63.9894 146.891 63.52C147.467 63.0294 148.149 62.656 148.939 62.4C149.749 62.1227 150.656 61.984 151.659 61.984C152.533 61.984 153.301 62.048 153.963 62.176C154.645 62.2827 155.243 62.4534 155.755 62.688C156.288 62.9014 156.768 63.1787 157.195 63.52C157.643 63.84 158.08 64.2027 158.507 64.608L155.787 67.392C155.253 66.8587 154.645 66.4427 153.963 66.144C153.301 65.824 152.619 65.664 151.915 65.664C151.104 65.664 150.528 65.792 150.187 66.048C149.845 66.304 149.675 66.6454 149.675 67.072C149.675 67.52 149.792 67.872 150.027 68.128C150.283 68.3627 150.752 68.5334 151.435 68.64L153.323 68.896C157.013 69.3867 158.859 71.072 158.859 73.952C158.859 74.7627 158.688 75.5094 158.347 76.192C158.005 76.8747 157.515 77.472 156.875 77.984C156.256 78.4747 155.499 78.8587 154.603 79.136C153.728 79.4134 152.747 79.552 151.659 79.552Z" fill="white"/>
<path d="M172.382 79.408C171.369 79.408 170.516 79.248 169.822 78.928C169.129 78.5947 168.509 78.128 167.962 77.528L169.702 75.768C170.076 76.1814 170.489 76.508 170.942 76.748C171.396 76.988 171.909 77.108 172.482 77.108C173.069 77.108 173.476 77.0214 173.702 76.848C173.929 76.6614 174.042 76.4147 174.042 76.108C174.042 75.6147 173.689 75.3214 172.982 75.228L171.842 75.088C169.482 74.7947 168.302 73.7147 168.302 71.848C168.302 71.3414 168.396 70.8814 168.582 70.468C168.782 70.0414 169.056 69.6814 169.402 69.388C169.762 69.0814 170.189 68.848 170.682 68.688C171.189 68.5147 171.756 68.428 172.382 68.428C172.929 68.428 173.409 68.468 173.822 68.548C174.249 68.6147 174.622 68.7214 174.942 68.868C175.276 69.0014 175.576 69.1747 175.842 69.388C176.122 69.588 176.396 69.8147 176.662 70.068L174.962 71.808C174.629 71.4747 174.249 71.2147 173.822 71.028C173.409 70.828 172.982 70.728 172.542 70.728C172.036 70.728 171.676 70.808 171.462 70.968C171.249 71.128 171.142 71.3414 171.142 71.608C171.142 71.888 171.216 72.108 171.362 72.268C171.522 72.4147 171.816 72.5214 172.242 72.588L173.422 72.748C175.729 73.0547 176.882 74.108 176.882 75.908C176.882 76.4147 176.776 76.8814 176.562 77.308C176.349 77.7347 176.042 78.108 175.642 78.428C175.256 78.7347 174.782 78.9747 174.222 79.148C173.676 79.3214 173.062 79.408 172.382 79.408Z" fill="white"/>
<path d="M178.9 64.368H181.86V70.448H181.98C182.167 69.9014 182.494 69.428 182.96 69.028C183.427 68.628 184.074 68.428 184.9 68.428C185.98 68.428 186.794 68.788 187.34 69.508C187.9 70.228 188.18 71.2547 188.18 72.588V79.168H185.22V72.828C185.22 72.148 185.114 71.648 184.9 71.328C184.687 70.9947 184.307 70.828 183.76 70.828C183.52 70.828 183.287 70.8614 183.06 70.928C182.834 70.9814 182.627 71.0747 182.44 71.208C182.267 71.3414 182.127 71.508 182.02 71.708C181.914 71.8947 181.86 72.1147 181.86 72.368V79.168H178.9V64.368Z" fill="white"/>
<path d="M195.074 79.408C194.301 79.408 193.608 79.2814 192.994 79.028C192.394 78.7747 191.881 78.408 191.454 77.928C191.041 77.448 190.721 76.868 190.494 76.188C190.268 75.508 190.154 74.748 190.154 73.908C190.154 73.068 190.268 72.308 190.494 71.628C190.721 70.948 191.041 70.3747 191.454 69.908C191.881 69.428 192.394 69.0614 192.994 68.808C193.608 68.5547 194.301 68.428 195.074 68.428C195.848 68.428 196.534 68.5547 197.134 68.808C197.748 69.0614 198.261 69.428 198.674 69.908C199.101 70.3747 199.428 70.948 199.654 71.628C199.881 72.308 199.994 73.068 199.994 73.908C199.994 74.748 199.881 75.508 199.654 76.188C199.428 76.868 199.101 77.448 198.674 77.928C198.261 78.408 197.748 78.7747 197.134 79.028C196.534 79.2814 195.848 79.408 195.074 79.408ZM195.074 77.068C195.661 77.068 196.114 76.888 196.434 76.528C196.754 76.168 196.914 75.6547 196.914 74.988V72.848C196.914 72.1814 196.754 71.668 196.434 71.308C196.114 70.948 195.661 70.768 195.074 70.768C194.488 70.768 194.034 70.948 193.714 71.308C193.394 71.668 193.234 72.1814 193.234 72.848V74.988C193.234 75.6547 193.394 76.168 193.714 76.528C194.034 76.888 194.488 77.068 195.074 77.068Z" fill="white"/>
<path d="M202.104 68.668H205.064V70.428H205.163C205.31 69.8414 205.643 69.3614 206.163 68.988C206.697 68.6147 207.304 68.428 207.984 68.428C209.317 68.428 210.324 68.8947 211.003 69.828C211.683 70.7614 212.023 72.1214 212.023 73.908C212.023 75.6947 211.683 77.0614 211.003 78.008C210.324 78.9414 209.317 79.408 207.984 79.408C207.637 79.408 207.31 79.3547 207.003 79.248C206.697 79.1547 206.417 79.0214 206.163 78.848C205.923 78.6614 205.717 78.448 205.544 78.208C205.37 77.9547 205.243 77.688 205.163 77.408H205.064V83.168H202.104V68.668ZM207.003 77.008C207.563 77.008 208.023 76.8147 208.383 76.428C208.757 76.028 208.943 75.4947 208.943 74.828V73.008C208.943 72.3414 208.757 71.8147 208.383 71.428C208.023 71.028 207.563 70.828 207.003 70.828C206.443 70.828 205.977 70.968 205.604 71.248C205.243 71.5147 205.064 71.888 205.064 72.368V75.468C205.064 75.948 205.243 76.328 205.604 76.608C205.977 76.8747 206.443 77.008 207.003 77.008Z" fill="white"/>
<path d="M721.012 69.9091C721.012 69.3655 721.144 68.87 721.409 68.4226C721.675 67.9751 722.031 67.6188 722.478 67.3537C722.926 67.0885 723.421 66.956 723.965 66.956C724.435 66.956 724.87 67.0571 725.267 67.2592C725.668 67.4614 726 67.7382 726.262 68.0895C726.524 68.4375 726.686 68.8319 726.749 69.2727H725.546C725.48 68.9313 725.296 68.6529 724.994 68.4375C724.692 68.2188 724.349 68.1094 723.965 68.1094C723.633 68.1094 723.332 68.1906 723.06 68.353C722.788 68.5154 722.571 68.7325 722.409 69.0043C722.246 69.276 722.165 69.5777 722.165 69.9091C722.165 70.2405 722.246 70.5421 722.409 70.8139C722.571 71.0857 722.788 71.3028 723.06 71.4652C723.332 71.6276 723.633 71.7088 723.965 71.7088C724.349 71.7088 724.674 71.6011 724.939 71.3857C725.208 71.1669 725.377 70.8868 725.446 70.5455H726.65C726.587 70.9863 726.432 71.3823 726.187 71.7337C725.942 72.0817 725.627 72.3568 725.243 72.5589C724.861 72.7611 724.435 72.8622 723.965 72.8622C723.421 72.8622 722.926 72.7296 722.478 72.4645C722.031 72.1993 721.675 71.843 721.409 71.3956C721.144 70.9482 721.012 70.4527 721.012 69.9091ZM723.915 75.1591C723.193 75.1591 722.513 75.0232 721.877 74.7514C721.244 74.4796 720.685 74.1035 720.201 73.6229C719.721 73.139 719.343 72.5805 719.068 71.9474C718.796 71.3144 718.662 70.6349 718.665 69.9091C718.668 69.1832 718.806 68.5038 719.078 67.8707C719.353 67.2377 719.731 66.6809 720.211 66.2003C720.692 65.7164 721.249 65.3385 721.882 65.0668C722.515 64.795 723.193 64.6591 723.915 64.6591C724.641 64.6591 725.32 64.795 725.953 65.0668C726.59 65.3385 727.147 65.7164 727.624 66.2003C728.105 66.6809 728.481 67.2377 728.752 67.8707C729.024 68.5038 729.162 69.1832 729.165 69.9091C729.168 70.6349 729.034 71.3144 728.762 71.9474C728.491 72.5805 728.114 73.139 727.634 73.6229C727.153 74.1035 726.595 74.4796 725.958 74.7514C725.322 75.0232 724.641 75.1591 723.915 75.1591ZM723.915 74.0057C724.482 74.0057 725.014 73.8996 725.511 73.6875C726.008 73.4754 726.444 73.1821 726.819 72.8075C727.193 72.433 727.486 71.9988 727.699 71.505C727.911 71.0078 728.015 70.4775 728.012 69.9141C728.008 69.3473 727.901 68.8153 727.689 68.3182C727.476 67.821 727.183 67.3852 726.809 67.0107C726.434 66.6361 726 66.3428 725.506 66.1307C725.012 65.9186 724.482 65.8125 723.915 65.8125C723.352 65.8125 722.823 65.9186 722.329 66.1307C721.835 66.3428 721.401 66.6378 721.027 67.0156C720.652 67.3902 720.357 67.826 720.142 68.3232C719.93 68.817 719.822 69.3473 719.819 69.9141C719.815 70.4742 719.92 71.0028 720.132 71.5C720.344 71.9938 720.637 72.428 721.012 72.8026C721.39 73.1771 721.825 73.4721 722.319 73.6875C722.816 73.8996 723.348 74.0057 723.915 74.0057ZM735.314 75V74.1051L738.675 70.4261C739.069 69.9953 739.394 69.6207 739.649 69.3026C739.904 68.9811 740.093 68.6795 740.216 68.3977C740.342 68.1127 740.405 67.8144 740.405 67.5028C740.405 67.1449 740.318 66.835 740.146 66.5732C739.977 66.3113 739.745 66.1091 739.45 65.9666C739.155 65.8241 738.824 65.7528 738.456 65.7528C738.065 65.7528 737.723 65.834 737.432 65.9964C737.143 66.1555 736.92 66.3793 736.76 66.6676C736.605 66.956 736.527 67.294 736.527 67.6818H735.354C735.354 67.0852 735.491 66.5616 735.766 66.1108C736.041 65.66 736.416 65.3087 736.89 65.0568C737.367 64.8049 737.902 64.679 738.496 64.679C739.092 64.679 739.621 64.8049 740.081 65.0568C740.542 65.3087 740.903 65.6484 741.165 66.076C741.427 66.5036 741.558 66.9792 741.558 67.5028C741.558 67.8774 741.49 68.2436 741.354 68.6016C741.222 68.9562 740.99 69.3523 740.658 69.7898C740.33 70.224 739.874 70.7543 739.291 71.3807L737.004 73.8267V73.9062H741.737V75H735.314ZM747.111 75.1392C746.362 75.1392 745.724 74.9354 745.197 74.5277C744.67 74.1167 744.268 73.5218 743.989 72.7429C743.711 71.9607 743.572 71.0161 743.572 69.9091C743.572 68.8087 743.711 67.8691 743.989 67.0902C744.271 66.308 744.675 65.7114 745.202 65.3004C745.733 64.8861 746.369 64.679 747.111 64.679C747.854 64.679 748.488 64.8861 749.015 65.3004C749.546 65.7114 749.95 66.308 750.229 67.0902C750.51 67.8691 750.651 68.8087 750.651 69.9091C750.651 71.0161 750.512 71.9607 750.233 72.7429C749.955 73.5218 749.552 74.1167 749.025 74.5277C748.498 74.9354 747.86 75.1392 747.111 75.1392ZM747.111 74.0455C747.854 74.0455 748.43 73.6875 748.841 72.9716C749.252 72.2557 749.458 71.2348 749.458 69.9091C749.458 69.0275 749.363 68.2768 749.175 67.657C748.989 67.0372 748.72 66.5649 748.369 66.2401C748.021 65.9152 747.602 65.7528 747.111 65.7528C746.376 65.7528 745.8 66.1158 745.386 66.8416C744.972 67.5642 744.765 68.5866 744.765 69.9091C744.765 70.7907 744.858 71.5398 745.043 72.1562C745.229 72.7727 745.496 73.2417 745.844 73.5632C746.195 73.8847 746.617 74.0455 747.111 74.0455ZM752.54 75V74.1051L755.901 70.4261C756.296 69.9953 756.62 69.6207 756.876 69.3026C757.131 68.9811 757.32 68.6795 757.442 68.3977C757.568 68.1127 757.631 67.8144 757.631 67.5028C757.631 67.1449 757.545 66.835 757.373 66.5732C757.204 66.3113 756.972 66.1091 756.677 65.9666C756.382 65.8241 756.05 65.7528 755.682 65.7528C755.291 65.7528 754.95 65.834 754.658 65.9964C754.37 66.1555 754.146 66.3793 753.987 66.6676C753.831 66.956 753.753 67.294 753.753 67.6818H752.58C752.58 67.0852 752.718 66.5616 752.993 66.1108C753.268 65.66 753.642 65.3087 754.116 65.0568C754.594 64.8049 755.129 64.679 755.722 64.679C756.319 64.679 756.847 64.8049 757.308 65.0568C757.769 65.3087 758.13 65.6484 758.392 66.076C758.654 66.5036 758.785 66.9792 758.785 67.5028C758.785 67.8774 758.717 68.2436 758.581 68.6016C758.448 68.9562 758.216 69.3523 757.885 69.7898C757.557 70.224 757.101 70.7543 756.518 71.3807L754.231 73.8267V73.9062H758.964V75H752.54ZM761.017 75V74.1051L764.378 70.4261C764.772 69.9953 765.097 69.6207 765.352 69.3026C765.607 68.9811 765.796 68.6795 765.919 68.3977C766.045 68.1127 766.108 67.8144 766.108 67.5028C766.108 67.1449 766.022 66.835 765.849 66.5732C765.68 66.3113 765.448 66.1091 765.153 65.9666C764.858 65.8241 764.527 65.7528 764.159 65.7528C763.768 65.7528 763.426 65.834 763.135 65.9964C762.846 66.1555 762.623 66.3793 762.464 66.6676C762.308 66.956 762.23 67.294 762.23 67.6818H761.057C761.057 67.0852 761.194 66.5616 761.469 66.1108C761.744 65.66 762.119 65.3087 762.593 65.0568C763.07 64.8049 763.605 64.679 764.199 64.679C764.795 64.679 765.324 64.8049 765.785 65.0568C766.245 65.3087 766.607 65.6484 766.868 66.076C767.13 66.5036 767.261 66.9792 767.261 67.5028C767.261 67.8774 767.193 68.2436 767.057 68.6016C766.925 68.9562 766.693 69.3523 766.361 69.7898C766.033 70.224 765.577 70.7543 764.994 71.3807L762.707 73.8267V73.9062H767.44V75H761.017ZM777.826 69.3622V70.456H773.371V69.3622H777.826ZM787.368 65.9119V64.8182H795.004V65.9119H791.802V75H790.569V65.9119H787.368ZM798.743 75.1591C798.053 75.1591 797.448 74.995 796.928 74.6669C796.411 74.3388 796.007 73.8797 795.715 73.2898C795.426 72.6998 795.282 72.0104 795.282 71.2216C795.282 70.4261 795.426 69.7318 795.715 69.1385C796.007 68.5452 796.411 68.0845 796.928 67.7564C797.448 67.4283 798.053 67.2642 798.743 67.2642C799.432 67.2642 800.035 67.4283 800.552 67.7564C801.073 68.0845 801.477 68.5452 801.765 69.1385C802.057 69.7318 802.203 70.4261 802.203 71.2216C802.203 72.0104 802.057 72.6998 801.765 73.2898C801.477 73.8797 801.073 74.3388 800.552 74.6669C800.035 74.995 799.432 75.1591 798.743 75.1591ZM798.743 74.1051C799.266 74.1051 799.697 73.9709 800.035 73.7024C800.373 73.4339 800.623 73.081 800.786 72.6435C800.948 72.206 801.029 71.732 801.029 71.2216C801.029 70.7112 800.948 70.2356 800.786 69.7947C800.623 69.3539 800.373 68.9976 800.035 68.7259C799.697 68.4541 799.266 68.3182 798.743 68.3182C798.219 68.3182 797.788 68.4541 797.45 68.7259C797.112 68.9976 796.862 69.3539 796.699 69.7947C796.537 70.2356 796.456 70.7112 796.456 71.2216C796.456 71.732 796.537 72.206 796.699 72.6435C796.862 73.081 797.112 73.4339 797.45 73.7024C797.788 73.9709 798.219 74.1051 798.743 74.1051ZM806.877 75.1591C806.241 75.1591 805.679 74.9983 805.192 74.6768C804.705 74.352 804.324 73.8946 804.048 73.3047C803.773 72.7114 803.636 72.0104 803.636 71.2017C803.636 70.3996 803.773 69.7036 804.048 69.1136C804.324 68.5237 804.706 68.0679 805.197 67.7464C805.687 67.425 806.254 67.2642 806.897 67.2642C807.394 67.2642 807.787 67.3471 808.075 67.5128C808.367 67.6752 808.589 67.8608 808.742 68.0696C808.897 68.2751 809.018 68.4441 809.105 68.5767H809.204V64.8182H810.377V75H809.244V73.8267H809.105C809.018 73.9659 808.896 74.1416 808.737 74.3537C808.578 74.5625 808.351 74.7498 808.056 74.9155C807.761 75.0779 807.368 75.1591 806.877 75.1591ZM807.036 74.1051C807.507 74.1051 807.905 73.9825 808.23 73.7372C808.554 73.4886 808.801 73.1456 808.97 72.7081C809.139 72.2673 809.224 71.7585 809.224 71.1818C809.224 70.6117 809.141 70.1129 808.975 69.6854C808.81 69.2545 808.564 68.9197 808.24 68.6811C807.915 68.4392 807.514 68.3182 807.036 68.3182C806.539 68.3182 806.125 68.4458 805.794 68.701C805.465 68.9529 805.218 69.2959 805.053 69.7301C804.89 70.161 804.809 70.6449 804.809 71.1818C804.809 71.7254 804.892 72.2192 805.058 72.6634C805.227 73.1042 805.475 73.4555 805.803 73.7173C806.135 73.9759 806.546 74.1051 807.036 74.1051ZM815.791 75.1591C815.102 75.1591 814.497 74.995 813.977 74.6669C813.46 74.3388 813.055 73.8797 812.764 73.2898C812.475 72.6998 812.331 72.0104 812.331 71.2216C812.331 70.4261 812.475 69.7318 812.764 69.1385C813.055 68.5452 813.46 68.0845 813.977 67.7564C814.497 67.4283 815.102 67.2642 815.791 67.2642C816.481 67.2642 817.084 67.4283 817.601 67.7564C818.121 68.0845 818.526 68.5452 818.814 69.1385C819.106 69.7318 819.252 70.4261 819.252 71.2216C819.252 72.0104 819.106 72.6998 818.814 73.2898C818.526 73.8797 818.121 74.3388 817.601 74.6669C817.084 74.995 816.481 75.1591 815.791 75.1591ZM815.791 74.1051C816.315 74.1051 816.746 73.9709 817.084 73.7024C817.422 73.4339 817.672 73.081 817.835 72.6435C817.997 72.206 818.078 71.732 818.078 71.2216C818.078 70.7112 817.997 70.2356 817.835 69.7947C817.672 69.3539 817.422 68.9976 817.084 68.7259C816.746 68.4541 816.315 68.3182 815.791 68.3182C815.268 68.3182 814.837 68.4541 814.499 68.7259C814.161 68.9976 813.91 69.3539 813.748 69.7947C813.586 70.2356 813.504 70.7112 813.504 71.2216C813.504 71.732 813.586 72.206 813.748 72.6435C813.91 73.081 814.161 73.4339 814.499 73.7024C814.837 73.9709 815.268 74.1051 815.791 74.1051ZM826.452 69.0739L825.398 69.3722C825.331 69.1965 825.234 69.0258 825.104 68.8601C824.978 68.6911 824.806 68.5518 824.587 68.4425C824.369 68.3331 824.089 68.2784 823.747 68.2784C823.28 68.2784 822.89 68.3861 822.579 68.6016C822.271 68.8137 822.116 69.0838 822.116 69.4119C822.116 69.7036 822.223 69.9339 822.435 70.103C822.647 70.272 822.978 70.4129 823.429 70.5256L824.562 70.804C825.245 70.9697 825.754 71.2232 826.089 71.5646C826.424 71.9027 826.591 72.3385 826.591 72.8722C826.591 73.3097 826.465 73.7008 826.213 74.0455C825.964 74.3902 825.616 74.6619 825.169 74.8608C824.722 75.0597 824.201 75.1591 823.608 75.1591C822.829 75.1591 822.184 74.9901 821.674 74.652C821.164 74.3139 820.84 73.8201 820.705 73.1705L821.818 72.892C821.924 73.303 822.125 73.6113 822.42 73.8168C822.718 74.0223 823.107 74.125 823.588 74.125C824.135 74.125 824.569 74.009 824.891 73.777C825.215 73.5417 825.378 73.2599 825.378 72.9318C825.378 72.6667 825.285 72.4446 825.099 72.2656C824.914 72.0833 824.629 71.9474 824.244 71.858L822.972 71.5597C822.272 71.3939 821.759 71.1371 821.43 70.7891C821.106 70.4377 820.943 69.9986 820.943 69.4716C820.943 69.0407 821.064 68.6596 821.306 68.3281C821.551 67.9967 821.884 67.7365 822.305 67.5476C822.73 67.3587 823.21 67.2642 823.747 67.2642C824.503 67.2642 825.096 67.4299 825.527 67.7614C825.961 68.0928 826.269 68.5303 826.452 69.0739ZM835.397 75.1591C834.707 75.1591 834.103 74.995 833.582 74.6669C833.065 74.3388 832.661 73.8797 832.369 73.2898C832.081 72.6998 831.937 72.0104 831.937 71.2216C831.937 70.4261 832.081 69.7318 832.369 69.1385C832.661 68.5452 833.065 68.0845 833.582 67.7564C834.103 67.4283 834.707 67.2642 835.397 67.2642C836.086 67.2642 836.689 67.4283 837.206 67.7564C837.727 68.0845 838.131 68.5452 838.42 69.1385C838.711 69.7318 838.857 70.4261 838.857 71.2216C838.857 72.0104 838.711 72.6998 838.42 73.2898C838.131 73.8797 837.727 74.3388 837.206 74.6669C836.689 74.995 836.086 75.1591 835.397 75.1591ZM835.397 74.1051C835.921 74.1051 836.351 73.9709 836.689 73.7024C837.028 73.4339 837.278 73.081 837.44 72.6435C837.603 72.206 837.684 71.732 837.684 71.2216C837.684 70.7112 837.603 70.2356 837.44 69.7947C837.278 69.3539 837.028 68.9976 836.689 68.7259C836.351 68.4541 835.921 68.3182 835.397 68.3182C834.873 68.3182 834.442 68.4541 834.104 68.7259C833.766 68.9976 833.516 69.3539 833.354 69.7947C833.191 70.2356 833.11 70.7112 833.11 71.2216C833.11 71.732 833.191 72.206 833.354 72.6435C833.516 73.081 833.766 73.4339 834.104 73.7024C834.442 73.9709 834.873 74.1051 835.397 74.1051ZM846.057 69.0739L845.003 69.3722C844.937 69.1965 844.839 69.0258 844.71 68.8601C844.584 68.6911 844.412 68.5518 844.193 68.4425C843.974 68.3331 843.694 68.2784 843.353 68.2784C842.885 68.2784 842.496 68.3861 842.184 68.6016C841.876 68.8137 841.722 69.0838 841.722 69.4119C841.722 69.7036 841.828 69.9339 842.04 70.103C842.252 70.272 842.584 70.4129 843.034 70.5256L844.168 70.804C844.851 70.9697 845.359 71.2232 845.694 71.5646C846.029 71.9027 846.196 72.3385 846.196 72.8722C846.196 73.3097 846.07 73.7008 845.819 74.0455C845.57 74.3902 845.222 74.6619 844.775 74.8608C844.327 75.0597 843.807 75.1591 843.213 75.1591C842.435 75.1591 841.79 74.9901 841.279 74.652C840.769 74.3139 840.446 73.8201 840.31 73.1705L841.424 72.892C841.53 73.303 841.73 73.6113 842.025 73.8168C842.324 74.0223 842.713 74.125 843.194 74.125C843.74 74.125 844.175 74.009 844.496 73.777C844.821 73.5417 844.983 73.2599 844.983 72.9318C844.983 72.6667 844.891 72.4446 844.705 72.2656C844.519 72.0833 844.234 71.9474 843.85 71.858L842.577 71.5597C841.878 71.3939 841.364 71.1371 841.036 70.7891C840.711 70.4377 840.549 69.9986 840.549 69.4716C840.549 69.0407 840.67 68.6596 840.912 68.3281C841.157 67.9967 841.49 67.7365 841.911 67.5476C842.335 67.3587 842.816 67.2642 843.353 67.2642C844.108 67.2642 844.702 67.4299 845.132 67.7614C845.567 68.0928 845.875 68.5303 846.057 69.0739ZM854.784 75.1591C854.147 75.1591 853.585 74.9983 853.098 74.6768C852.611 74.352 852.23 73.8946 851.955 73.3047C851.68 72.7114 851.542 72.0104 851.542 71.2017C851.542 70.3996 851.68 69.7036 851.955 69.1136C852.23 68.5237 852.613 68.0679 853.103 67.7464C853.594 67.425 854.16 67.2642 854.803 67.2642C855.301 67.2642 855.693 67.3471 855.982 67.5128C856.273 67.6752 856.495 67.8608 856.648 68.0696C856.804 68.2751 856.925 68.4441 857.011 68.5767H857.11V64.8182H858.284V75H857.15V73.8267H857.011C856.925 73.9659 856.802 74.1416 856.643 74.3537C856.484 74.5625 856.257 74.7498 855.962 74.9155C855.667 75.0779 855.274 75.1591 854.784 75.1591ZM854.943 74.1051C855.413 74.1051 855.811 73.9825 856.136 73.7372C856.461 73.4886 856.708 73.1456 856.877 72.7081C857.046 72.2673 857.13 71.7585 857.13 71.1818C857.13 70.6117 857.047 70.1129 856.882 69.6854C856.716 69.2545 856.471 68.9197 856.146 68.6811C855.821 68.4392 855.42 68.3182 854.943 68.3182C854.445 68.3182 854.031 68.4458 853.7 68.701C853.372 68.9529 853.125 69.2959 852.959 69.7301C852.797 70.161 852.715 70.6449 852.715 71.1818C852.715 71.7254 852.798 72.2192 852.964 72.6634C853.133 73.1042 853.382 73.4555 853.71 73.7173C854.041 73.9759 854.452 74.1051 854.943 74.1051ZM860.595 75V67.3636H861.769V75H860.595ZM861.192 66.0909C860.963 66.0909 860.766 66.013 860.6 65.8572C860.438 65.7015 860.357 65.5142 860.357 65.2955C860.357 65.0767 860.438 64.8894 860.6 64.7337C860.766 64.5779 860.963 64.5 861.192 64.5C861.421 64.5 861.616 64.5779 861.779 64.7337C861.944 64.8894 862.027 65.0767 862.027 65.2955C862.027 65.5142 861.944 65.7015 861.779 65.8572C861.616 66.013 861.421 66.0909 861.192 66.0909ZM863.918 75V67.3636H865.051V68.517H865.131C865.27 68.1392 865.522 67.8326 865.886 67.5973C866.251 67.362 866.662 67.2443 867.119 67.2443C867.205 67.2443 867.313 67.246 867.442 67.2493C867.572 67.2526 867.67 67.2576 867.736 67.2642V68.4574C867.696 68.4474 867.605 68.4325 867.462 68.4126C867.323 68.3894 867.176 68.3778 867.02 68.3778C866.649 68.3778 866.317 68.4557 866.026 68.6115C865.737 68.764 865.509 68.9761 865.339 69.2479C865.174 69.5163 865.091 69.8229 865.091 70.1676V75H863.918ZM872.096 75.1591C871.36 75.1591 870.725 74.9967 870.192 74.6719C869.661 74.3438 869.252 73.8864 868.964 73.2997C868.679 72.7098 868.536 72.0237 868.536 71.2415C868.536 70.4593 868.679 69.7699 868.964 69.1733C869.252 68.5734 869.653 68.1061 870.167 67.7713C870.684 67.4332 871.287 67.2642 871.977 67.2642C872.374 67.2642 872.767 67.3305 873.155 67.4631C873.543 67.5956 873.896 67.8111 874.214 68.1094C874.532 68.4044 874.786 68.7955 874.974 69.2827C875.163 69.7699 875.258 70.3698 875.258 71.0824V71.5795H869.371V70.5653H874.065C874.065 70.1345 873.978 69.75 873.806 69.4119C873.637 69.0739 873.395 68.8071 873.08 68.6115C872.769 68.416 872.401 68.3182 871.977 68.3182C871.509 68.3182 871.105 68.4342 870.763 68.6662C870.425 68.8949 870.165 69.1932 869.983 69.5611C869.801 69.929 869.71 70.3234 869.71 70.7443V71.4205C869.71 71.9972 869.809 72.486 870.008 72.8871C870.21 73.2848 870.49 73.5881 870.848 73.7969C871.206 74.0024 871.622 74.1051 872.096 74.1051C872.404 74.1051 872.683 74.062 872.931 73.9759C873.183 73.8864 873.4 73.7538 873.582 73.5781C873.765 73.3991 873.906 73.1771 874.005 72.9119L875.138 73.2301C875.019 73.6146 874.819 73.9527 874.537 74.2443C874.255 74.5327 873.907 74.758 873.493 74.9205C873.079 75.0795 872.613 75.1591 872.096 75.1591ZM877.043 75V67.3636H878.216V75H877.043ZM877.639 66.0909C877.411 66.0909 877.213 66.013 877.048 65.8572C876.885 65.7015 876.804 65.5142 876.804 65.2955C876.804 65.0767 876.885 64.8894 877.048 64.7337C877.213 64.5779 877.411 64.5 877.639 64.5C877.868 64.5 878.063 64.5779 878.226 64.7337C878.392 64.8894 878.474 65.0767 878.474 65.2955C878.474 65.5142 878.392 65.7015 878.226 65.8572C878.063 66.013 877.868 66.0909 877.639 66.0909ZM883.686 67.3636V68.358H879.729V67.3636H883.686ZM880.882 65.5341H882.055V72.8125C882.055 73.1439 882.103 73.3925 882.199 73.5582C882.299 73.7206 882.425 73.83 882.577 73.8864C882.733 73.9394 882.897 73.9659 883.069 73.9659C883.199 73.9659 883.305 73.9593 883.388 73.946C883.47 73.9295 883.537 73.9162 883.586 73.9062L883.825 74.9602C883.746 74.9901 883.635 75.0199 883.492 75.0497C883.349 75.0829 883.169 75.0994 882.95 75.0994C882.619 75.0994 882.294 75.0282 881.976 74.8857C881.661 74.7431 881.399 74.526 881.19 74.2344C880.985 73.9427 880.882 73.5748 880.882 73.1307V65.5341ZM888.471 75.1591C887.782 75.1591 887.177 74.995 886.656 74.6669C886.139 74.3388 885.735 73.8797 885.443 73.2898C885.155 72.6998 885.011 72.0104 885.011 71.2216C885.011 70.4261 885.155 69.7318 885.443 69.1385C885.735 68.5452 886.139 68.0845 886.656 67.7564C887.177 67.4283 887.782 67.2642 888.471 67.2642C889.16 67.2642 889.764 67.4283 890.281 67.7564C890.801 68.0845 891.205 68.5452 891.494 69.1385C891.785 69.7318 891.931 70.4261 891.931 71.2216C891.931 72.0104 891.785 72.6998 891.494 73.2898C891.205 73.8797 890.801 74.3388 890.281 74.6669C889.764 74.995 889.16 75.1591 888.471 75.1591ZM888.471 74.1051C888.995 74.1051 889.426 73.9709 889.764 73.7024C890.102 73.4339 890.352 73.081 890.514 72.6435C890.677 72.206 890.758 71.732 890.758 71.2216C890.758 70.7112 890.677 70.2356 890.514 69.7947C890.352 69.3539 890.102 68.9976 889.764 68.7259C889.426 68.4541 888.995 68.3182 888.471 68.3182C887.947 68.3182 887.517 68.4541 887.178 68.7259C886.84 68.9976 886.59 69.3539 886.428 69.7947C886.265 70.2356 886.184 70.7112 886.184 71.2216C886.184 71.732 886.265 72.206 886.428 72.6435C886.59 73.081 886.84 73.4339 887.178 73.7024C887.517 73.9709 887.947 74.1051 888.471 74.1051ZM899.131 69.0739L898.077 69.3722C898.011 69.1965 897.913 69.0258 897.784 68.8601C897.658 68.6911 897.486 68.5518 897.267 68.4425C897.048 68.3331 896.768 68.2784 896.427 68.2784C895.96 68.2784 895.57 68.3861 895.259 68.6016C894.95 68.8137 894.796 69.0838 894.796 69.4119C894.796 69.7036 894.902 69.9339 895.114 70.103C895.326 70.272 895.658 70.4129 896.109 70.5256L897.242 70.804C897.925 70.9697 898.434 71.2232 898.768 71.5646C899.103 71.9027 899.271 72.3385 899.271 72.8722C899.271 73.3097 899.145 73.7008 898.893 74.0455C898.644 74.3902 898.296 74.6619 897.849 74.8608C897.401 75.0597 896.881 75.1591 896.288 75.1591C895.509 75.1591 894.864 74.9901 894.354 74.652C893.843 74.3139 893.52 73.8201 893.384 73.1705L894.498 72.892C894.604 73.303 894.804 73.6113 895.099 73.8168C895.398 74.0223 895.787 74.125 896.268 74.125C896.815 74.125 897.249 74.009 897.57 73.777C897.895 73.5417 898.058 73.2599 898.058 72.9318C898.058 72.6667 897.965 72.4446 897.779 72.2656C897.594 72.0833 897.308 71.9474 896.924 71.858L895.651 71.5597C894.952 71.3939 894.438 71.1371 894.11 70.7891C893.785 70.4377 893.623 69.9986 893.623 69.4716C893.623 69.0407 893.744 68.6596 893.986 68.3281C894.231 67.9967 894.564 67.7365 894.985 67.5476C895.409 67.3587 895.89 67.2642 896.427 67.2642C897.183 67.2642 897.776 67.4299 898.207 67.7614C898.641 68.0928 898.949 68.5303 899.131 69.0739ZM904.974 75V67.3636H906.108V68.517H906.187C906.327 68.1392 906.578 67.8326 906.943 67.5973C907.308 67.362 907.719 67.2443 908.176 67.2443C908.262 67.2443 908.37 67.246 908.499 67.2493C908.628 67.2526 908.726 67.2576 908.792 67.2642V68.4574C908.753 68.4474 908.662 68.4325 908.519 68.4126C908.38 68.3894 908.232 68.3778 908.077 68.3778C907.705 68.3778 907.374 68.4557 907.082 68.6115C906.794 68.764 906.565 68.9761 906.396 69.2479C906.23 69.5163 906.148 69.8229 906.148 70.1676V75H904.974ZM913.153 75.1591C912.417 75.1591 911.782 74.9967 911.248 74.6719C910.718 74.3438 910.309 73.8864 910.02 73.2997C909.735 72.7098 909.593 72.0237 909.593 71.2415C909.593 70.4593 909.735 69.7699 910.02 69.1733C910.309 68.5734 910.71 68.1061 911.224 67.7713C911.741 67.4332 912.344 67.2642 913.033 67.2642C913.431 67.2642 913.824 67.3305 914.211 67.4631C914.599 67.5956 914.952 67.8111 915.27 68.1094C915.589 68.4044 915.842 68.7955 916.031 69.2827C916.22 69.7699 916.314 70.3698 916.314 71.0824V71.5795H910.428V70.5653H915.121C915.121 70.1345 915.035 69.75 914.863 69.4119C914.694 69.0739 914.452 68.8071 914.137 68.6115C913.825 68.416 913.457 68.3182 913.033 68.3182C912.566 68.3182 912.162 68.4342 911.82 68.6662C911.482 68.8949 911.222 69.1932 911.04 69.5611C910.857 69.929 910.766 70.3234 910.766 70.7443V71.4205C910.766 71.9972 910.866 72.486 911.064 72.8871C911.267 73.2848 911.547 73.5881 911.905 73.7969C912.263 74.0024 912.679 74.1051 913.153 74.1051C913.461 74.1051 913.739 74.062 913.988 73.9759C914.24 73.8864 914.457 73.7538 914.639 73.5781C914.821 73.3991 914.962 73.1771 915.062 72.9119L916.195 73.2301C916.076 73.6146 915.875 73.9527 915.594 74.2443C915.312 74.5327 914.964 74.758 914.55 74.9205C914.135 75.0795 913.67 75.1591 913.153 75.1591ZM923.508 69.0739L922.454 69.3722C922.388 69.1965 922.29 69.0258 922.161 68.8601C922.035 68.6911 921.863 68.5518 921.644 68.4425C921.425 68.3331 921.145 68.2784 920.804 68.2784C920.336 68.2784 919.947 68.3861 919.635 68.6016C919.327 68.8137 919.173 69.0838 919.173 69.4119C919.173 69.7036 919.279 69.9339 919.491 70.103C919.703 70.272 920.035 70.4129 920.486 70.5256L921.619 70.804C922.302 70.9697 922.811 71.2232 923.145 71.5646C923.48 71.9027 923.648 72.3385 923.648 72.8722C923.648 73.3097 923.522 73.7008 923.27 74.0455C923.021 74.3902 922.673 74.6619 922.226 74.8608C921.778 75.0597 921.258 75.1591 920.665 75.1591C919.886 75.1591 919.241 74.9901 918.731 74.652C918.22 74.3139 917.897 73.8201 917.761 73.1705L918.875 72.892C918.981 73.303 919.181 73.6113 919.476 73.8168C919.775 74.0223 920.164 74.125 920.645 74.125C921.192 74.125 921.626 74.009 921.947 73.777C922.272 73.5417 922.434 73.2599 922.434 72.9318C922.434 72.6667 922.342 72.4446 922.156 72.2656C921.97 72.0833 921.685 71.9474 921.301 71.858L920.028 71.5597C919.329 71.3939 918.815 71.1371 918.487 70.7891C918.162 70.4377 918 69.9986 918 69.4716C918 69.0407 918.121 68.6596 918.363 68.3281C918.608 67.9967 918.941 67.7365 919.362 67.5476C919.786 67.3587 920.267 67.2642 920.804 67.2642C921.559 67.2642 922.153 67.4299 922.584 67.7614C923.018 68.0928 923.326 68.5303 923.508 69.0739ZM928.615 75.1591C927.88 75.1591 927.245 74.9967 926.711 74.6719C926.181 74.3438 925.772 73.8864 925.483 73.2997C925.198 72.7098 925.056 72.0237 925.056 71.2415C925.056 70.4593 925.198 69.7699 925.483 69.1733C925.772 68.5734 926.173 68.1061 926.686 67.7713C927.203 67.4332 927.807 67.2642 928.496 67.2642C928.894 67.2642 929.287 67.3305 929.674 67.4631C930.062 67.5956 930.415 67.8111 930.733 68.1094C931.051 68.4044 931.305 68.7955 931.494 69.2827C931.683 69.7699 931.777 70.3698 931.777 71.0824V71.5795H925.891V70.5653H930.584C930.584 70.1345 930.498 69.75 930.326 69.4119C930.157 69.0739 929.915 68.8071 929.6 68.6115C929.288 68.416 928.92 68.3182 928.496 68.3182C928.029 68.3182 927.624 68.4342 927.283 68.6662C926.945 68.8949 926.685 69.1932 926.502 69.5611C926.32 69.929 926.229 70.3234 926.229 70.7443V71.4205C926.229 71.9972 926.328 72.486 926.527 72.8871C926.73 73.2848 927.01 73.5881 927.368 73.7969C927.725 74.0024 928.141 74.1051 928.615 74.1051C928.924 74.1051 929.202 74.062 929.451 73.9759C929.703 73.8864 929.92 73.7538 930.102 73.5781C930.284 73.3991 930.425 73.1771 930.525 72.9119L931.658 73.2301C931.539 73.6146 931.338 73.9527 931.056 74.2443C930.775 74.5327 930.427 74.758 930.012 74.9205C929.598 75.0795 929.132 75.1591 928.615 75.1591ZM933.562 75V67.3636H934.696V68.517H934.775C934.914 68.1392 935.166 67.8326 935.531 67.5973C935.895 67.362 936.306 67.2443 936.764 67.2443C936.85 67.2443 936.958 67.246 937.087 67.2493C937.216 67.2526 937.314 67.2576 937.38 67.2642V68.4574C937.341 68.4474 937.249 68.4325 937.107 68.4126C936.968 68.3894 936.82 68.3778 936.664 68.3778C936.293 68.3778 935.962 68.4557 935.67 68.6115C935.382 68.764 935.153 68.9761 934.984 69.2479C934.818 69.5163 934.735 69.8229 934.735 70.1676V75H933.562ZM945.248 67.3636L942.424 75H941.231L938.407 67.3636H939.68L941.788 73.4489H941.867L943.975 67.3636H945.248ZM948.811 75.179C948.327 75.179 947.888 75.0878 947.494 74.9055C947.099 74.7199 946.786 74.4531 946.554 74.1051C946.322 73.7538 946.206 73.3295 946.206 72.8324C946.206 72.3949 946.292 72.0402 946.465 71.7685C946.637 71.4934 946.867 71.2779 947.156 71.1222C947.444 70.9664 947.762 70.8504 948.11 70.7741C948.462 70.6946 948.815 70.6316 949.169 70.5852C949.633 70.5256 950.009 70.4808 950.298 70.451C950.589 70.4179 950.802 70.3632 950.934 70.2869C951.07 70.2107 951.138 70.0781 951.138 69.8892V69.8494C951.138 69.3589 951.004 68.9777 950.735 68.706C950.47 68.4342 950.067 68.2983 949.527 68.2983C948.967 68.2983 948.528 68.4209 948.21 68.6662C947.892 68.9115 947.668 69.1733 947.539 69.4517L946.425 69.054C946.624 68.59 946.889 68.2287 947.22 67.9702C947.555 67.7083 947.92 67.526 948.314 67.4233C948.712 67.3172 949.103 67.2642 949.487 67.2642C949.733 67.2642 950.014 67.294 950.333 67.3537C950.654 67.41 950.964 67.5277 951.262 67.7067C951.564 67.8857 951.814 68.1558 952.013 68.517C952.212 68.8783 952.311 69.3622 952.311 69.9688V75H951.138V73.9659H951.078C950.999 74.1316 950.866 74.3089 950.681 74.4979C950.495 74.6868 950.248 74.8475 949.94 74.9801C949.632 75.1127 949.255 75.179 948.811 75.179ZM948.99 74.125C949.454 74.125 949.845 74.0339 950.164 73.8516C950.485 73.6693 950.727 73.4339 950.889 73.1456C951.055 72.8572 951.138 72.554 951.138 72.2358V71.1619C951.088 71.2216 950.979 71.2763 950.81 71.326C950.644 71.3724 950.452 71.4138 950.233 71.4503C950.018 71.4834 949.807 71.5133 949.602 71.5398C949.4 71.563 949.235 71.5829 949.11 71.5994C948.805 71.6392 948.52 71.7038 948.254 71.7933C947.993 71.8795 947.78 72.0104 947.618 72.1861C947.459 72.3584 947.379 72.5937 947.379 72.892C947.379 73.2997 947.53 73.608 947.832 73.8168C948.137 74.0223 948.523 74.125 948.99 74.125ZM957.336 75.1591C956.7 75.1591 956.138 74.9983 955.651 74.6768C955.164 74.352 954.783 73.8946 954.507 73.3047C954.232 72.7114 954.095 72.0104 954.095 71.2017C954.095 70.3996 954.232 69.7036 954.507 69.1136C954.783 68.5237 955.165 68.0679 955.656 67.7464C956.146 67.425 956.713 67.2642 957.356 67.2642C957.853 67.2642 958.246 67.3471 958.534 67.5128C958.826 67.6752 959.048 67.8608 959.201 68.0696C959.356 68.2751 959.477 68.4441 959.564 68.5767H959.663V64.8182H960.836V75H959.703V73.8267H959.564C959.477 73.9659 959.355 74.1416 959.196 74.3537C959.037 74.5625 958.81 74.7498 958.515 74.9155C958.22 75.0779 957.827 75.1591 957.336 75.1591ZM957.495 74.1051C957.966 74.1051 958.364 73.9825 958.689 73.7372C959.013 73.4886 959.26 73.1456 959.429 72.7081C959.598 72.2673 959.683 71.7585 959.683 71.1818C959.683 70.6117 959.6 70.1129 959.434 69.6854C959.269 69.2545 959.023 68.9197 958.699 68.6811C958.374 68.4392 957.973 68.3182 957.495 68.3182C956.998 68.3182 956.584 68.4458 956.252 68.701C955.924 68.9529 955.677 69.2959 955.512 69.7301C955.349 70.161 955.268 70.6449 955.268 71.1818C955.268 71.7254 955.351 72.2192 955.517 72.6634C955.686 73.1042 955.934 73.4555 956.262 73.7173C956.594 73.9759 957.005 74.1051 957.495 74.1051ZM966.25 75.1591C965.561 75.1591 964.956 74.995 964.436 74.6669C963.919 74.3388 963.514 73.8797 963.223 73.2898C962.934 72.6998 962.79 72.0104 962.79 71.2216C962.79 70.4261 962.934 69.7318 963.223 69.1385C963.514 68.5452 963.919 68.0845 964.436 67.7564C964.956 67.4283 965.561 67.2642 966.25 67.2642C966.94 67.2642 967.543 67.4283 968.06 67.7564C968.58 68.0845 968.985 68.5452 969.273 69.1385C969.565 69.7318 969.711 70.4261 969.711 71.2216C969.711 72.0104 969.565 72.6998 969.273 73.2898C968.985 73.8797 968.58 74.3388 968.06 74.6669C967.543 74.995 966.94 75.1591 966.25 75.1591ZM966.25 74.1051C966.774 74.1051 967.205 73.9709 967.543 73.7024C967.881 73.4339 968.131 73.081 968.294 72.6435C968.456 72.206 968.537 71.732 968.537 71.2216C968.537 70.7112 968.456 70.2356 968.294 69.7947C968.131 69.3539 967.881 68.9976 967.543 68.7259C967.205 68.4541 966.774 68.3182 966.25 68.3182C965.727 68.3182 965.296 68.4541 964.958 68.7259C964.62 68.9976 964.369 69.3539 964.207 69.7947C964.045 70.2356 963.963 70.7112 963.963 71.2216C963.963 71.732 964.045 72.206 964.207 72.6435C964.369 73.081 964.62 73.4339 964.958 73.7024C965.296 73.9709 965.727 74.1051 966.25 74.1051ZM976.911 69.0739L975.857 69.3722C975.79 69.1965 975.693 69.0258 975.563 68.8601C975.437 68.6911 975.265 68.5518 975.046 68.4425C974.828 68.3331 974.548 68.2784 974.206 68.2784C973.739 68.2784 973.349 68.3861 973.038 68.6016C972.73 68.8137 972.575 69.0838 972.575 69.4119C972.575 69.7036 972.682 69.9339 972.894 70.103C973.106 70.272 973.437 70.4129 973.888 70.5256L975.021 70.804C975.704 70.9697 976.213 71.2232 976.548 71.5646C976.883 71.9027 977.05 72.3385 977.05 72.8722C977.05 73.3097 976.924 73.7008 976.672 74.0455C976.423 74.3902 976.075 74.6619 975.628 74.8608C975.181 75.0597 974.66 75.1591 974.067 75.1591C973.288 75.1591 972.643 74.9901 972.133 74.652C971.623 74.3139 971.299 73.8201 971.164 73.1705L972.277 72.892C972.383 73.303 972.584 73.6113 972.879 73.8168C973.177 74.0223 973.566 74.125 974.047 74.125C974.594 74.125 975.028 74.009 975.35 73.777C975.674 73.5417 975.837 73.2599 975.837 72.9318C975.837 72.6667 975.744 72.4446 975.558 72.2656C975.373 72.0833 975.088 71.9474 974.703 71.858L973.431 71.5597C972.731 71.3939 972.218 71.1371 971.889 70.7891C971.565 70.4377 971.402 69.9986 971.402 69.4716C971.402 69.0407 971.523 68.6596 971.765 68.3281C972.01 67.9967 972.343 67.7365 972.764 67.5476C973.189 67.3587 973.669 67.2642 974.206 67.2642C974.962 67.2642 975.555 67.4299 975.986 67.7614C976.42 68.0928 976.728 68.5303 976.911 69.0739ZM979.671 75.0795C979.426 75.0795 979.215 74.9917 979.04 74.8161C978.864 74.6404 978.776 74.4299 978.776 74.1847C978.776 73.9394 978.864 73.7289 979.04 73.5533C979.215 73.3776 979.426 73.2898 979.671 73.2898C979.916 73.2898 980.127 73.3776 980.303 73.5533C980.478 73.7289 980.566 73.9394 980.566 74.1847C980.566 74.3471 980.525 74.4962 980.442 74.6321C980.362 74.768 980.254 74.8774 980.119 74.9602C979.986 75.0398 979.837 75.0795 979.671 75.0795Z" fill="white"/>
<rect x="1488" y="45" width="53" height="50" rx="4" fill="#212529"/>
<path d="M1515.53 67L1519.78 71.25C1520.06 71.5625 1520.06 72.0312 1519.78 72.3125L1519.06 73.0312C1518.78 73.3125 1518.28 73.3125 1518 73.0312L1515 70L1511.97 73.0312C1511.69 73.3125 1511.22 73.3125 1510.91 73.0312L1510.22 72.3125C1509.91 72.0312 1509.91 71.5625 1510.22 71.25L1514.47 67C1514.75 66.7188 1515.22 66.7188 1515.53 67Z" fill="white"/>
</svg>
